<svg xmlns="http://www.w3.org/2000/svg" width="184" height="187" viewBox="0 0 184 187">
  <g id="glycine" transform="translate(-159 -204)">
    <text id="COO" transform="translate(254 246)" font-size="24" font-family="SegoeUI, Segoe UI"><tspan x="0" y="0">COO</tspan></text>
    <text id="H" transform="translate(254 385)" font-size="24" font-family="SegoeUI, Segoe UI"><tspan x="0" y="0">H</tspan></text>
    <rect id="Rectangle_4" data-name="Rectangle 4" width="3" height="36" transform="translate(260 250)"/>
    <rect id="Rectangle_15" data-name="Rectangle 15" width="3" height="36" transform="translate(209.5 304.5) rotate(-90)"/>
    <rect id="Rectangle_16" data-name="Rectangle 16" width="3" height="36" transform="translate(260 323)"/>
    <text id="C" transform="translate(254 313)" font-size="26" font-family="SegoeUI, Segoe UI"><tspan x="0" y="0">C</tspan></text>
    <rect id="Rectangle_17" data-name="Rectangle 17" width="3" height="36" transform="translate(279.5 304.5) rotate(-90)"/>
    <text id="H3N" transform="translate(159 311)" font-size="26" font-family="SegoeUI, Segoe UI"><tspan x="0" y="0">H</tspan><tspan y="0" font-size="15.166" baseline-shift="-8.665800054057392">3</tspan><tspan y="0">N</tspan></text>
    <text id="H-2" data-name="H" transform="translate(324 313)" font-size="26" font-family="SegoeUI, Segoe UI"><tspan x="0" y="0">H</tspan></text>
    <g id="Group_9" data-name="Group 9" transform="translate(17 214)">
      <text id="_" data-name="+" transform="translate(182 77)" font-size="21" font-family="SegoeUI-Bold, Segoe UI" font-weight="700"><tspan x="0" y="0">+</tspan></text>
      <g id="Ellipse_4" data-name="Ellipse 4" transform="translate(182 64)" fill="none" stroke="#000" stroke-width="1">
        <ellipse cx="7.25" cy="7" rx="7.25" ry="7" stroke="none"/>
        <ellipse cx="7.25" cy="7" rx="6.75" ry="6.5" fill="none"/>
      </g>
    </g>
    <g id="Group_8" data-name="Group 8" transform="translate(51 207)">
      <g id="Ellipse_5" data-name="Ellipse 5" transform="translate(248 9)" fill="none" stroke="#000" stroke-width="1">
        <circle cx="7" cy="7" r="7" stroke="none"/>
        <circle cx="7" cy="7" r="6.5" fill="none"/>
      </g>
      <text id="_-" data-name="-" transform="translate(250 23)" font-size="24" font-family="SegoeUI-Bold, Segoe UI" font-weight="700"><tspan x="0" y="0">-</tspan></text>
    </g>
  </g>
</svg>
