<svg xmlns="http://www.w3.org/2000/svg" width="184" height="334" viewBox="0 0 184 334">
  <g id="isoleucine" transform="translate(-159 -140)">
    <text id="COO" transform="translate(254 182)" font-size="24" font-family="SegoeUI, Segoe UI"><tspan x="0" y="0">COO</tspan></text>
    <text id="CH2" transform="translate(254 393)" font-size="24" font-family="SegoeUI, Segoe UI"><tspan x="0" y="0">CH</tspan><tspan y="0" font-size="13.999" baseline-shift="-7.999199924145271">2</tspan></text>
    <text id="CH3" transform="translate(254 462)" font-size="24" font-family="SegoeUI, Segoe UI"><tspan x="0" y="0">CH</tspan><tspan y="0" font-size="13.999" baseline-shift="-7.999199924145271">3</tspan></text>
    <rect id="Rectangle_4" data-name="Rectangle 4" width="3" height="36" transform="translate(260 186)"/>
    <rect id="Rectangle_7" data-name="Rectangle 7" width="3" height="36" transform="translate(260 401)"/>
    <rect id="Rectangle_15" data-name="Rectangle 15" width="3" height="36" transform="translate(209.5 240.5) rotate(-90)"/>
    <rect id="Rectangle_16" data-name="Rectangle 16" width="3" height="36" transform="translate(260 259)"/>
    <text id="C" transform="translate(254 249)" font-size="26" font-family="SegoeUI, Segoe UI"><tspan x="0" y="0">C</tspan></text>
    <rect id="Rectangle_17" data-name="Rectangle 17" width="3" height="36" transform="translate(279.5 240.5) rotate(-90)"/>
    <text id="H3N" transform="translate(159 247)" font-size="26" font-family="SegoeUI, Segoe UI"><tspan x="0" y="0">H</tspan><tspan y="0" font-size="15.166" baseline-shift="-8.665800054057392">3</tspan><tspan y="0">N</tspan></text>
    <text id="H" transform="translate(324 249)" font-size="26" font-family="SegoeUI, Segoe UI"><tspan x="0" y="0">H</tspan></text>
    <g id="Group_9" data-name="Group 9" transform="translate(17 150)">
      <text id="_" data-name="+" transform="translate(182 77)" font-size="21" font-family="SegoeUI-Bold, Segoe UI" font-weight="700"><tspan x="0" y="0">+</tspan></text>
      <g id="Ellipse_4" data-name="Ellipse 4" transform="translate(182 64)" fill="none" stroke="#000" stroke-width="1">
        <ellipse cx="7.25" cy="7" rx="7.25" ry="7" stroke="none"/>
        <ellipse cx="7.25" cy="7" rx="6.75" ry="6.5" fill="none"/>
      </g>
    </g>
    <g id="Group_8" data-name="Group 8" transform="translate(51 143)">
      <g id="Ellipse_5" data-name="Ellipse 5" transform="translate(248 9)" fill="none" stroke="#000" stroke-width="1">
        <circle cx="7" cy="7" r="7" stroke="none"/>
        <circle cx="7" cy="7" r="6.5" fill="none"/>
      </g>
      <text id="_-" data-name="-" transform="translate(250 23)" font-size="24" font-family="SegoeUI-Bold, Segoe UI" font-weight="700"><tspan x="0" y="0">-</tspan></text>
    </g>
    <rect id="Rectangle_19" data-name="Rectangle 19" width="3" height="36" transform="translate(209.5 316.5) rotate(-90)"/>
    <text id="C-2" data-name="C" transform="translate(254 325)" font-size="26" font-family="SegoeUI, Segoe UI"><tspan x="0" y="0">C</tspan></text>
    <rect id="Rectangle_20" data-name="Rectangle 20" width="3" height="36" transform="translate(279.5 316.5) rotate(-90)"/>
    <text id="H3C" transform="translate(159 323)" font-size="26" font-family="SegoeUI, Segoe UI"><tspan x="0" y="0">H</tspan><tspan y="0" font-size="15.166" baseline-shift="-8.665800054057392">3</tspan><tspan y="0">C</tspan></text>
    <text id="H-2" data-name="H" transform="translate(324 325)" font-size="26" font-family="SegoeUI, Segoe UI"><tspan x="0" y="0">H</tspan></text>
    <rect id="Rectangle_21" data-name="Rectangle 21" width="3" height="36" transform="translate(260 331)"/>
  </g>
</svg>
